<svg xmlns="http://www.w3.org/2000/svg" viewBox="0 0 1200 620">
<defs>
 <linearGradient id="bg" x1="0" y1="0" x2="1" y2="1"><stop stop-color="#080a12"/><stop offset=".5" stop-color="#f59e0b"/><stop offset="1" stop-color="#05060b"/></linearGradient>
 <radialGradient id="glow"><stop stop-color="#ef4444" stop-opacity=".8"/><stop offset="1" stop-color="#ef4444" stop-opacity="0"/></radialGradient>
 <filter id="blur"><feGaussianBlur stdDeviation="28"/></filter>
 <filter id="shadow"><feDropShadow dx="0" dy="12" stdDeviation="12" flood-opacity=".55"/></filter>
</defs>
<rect width="1200" height="620" fill="url(#bg)"/>
<circle cx="930" cy="190" r="240" fill="url(#glow)" filter="url(#blur)"/>
<circle cx="230" cy="520" r="190" fill="url(#glow)" opacity=".35" filter="url(#blur)"/>
<g opacity=".16" stroke="#ef4444" fill="none">
 <path d="M0 480 Q280 250 600 480 T1200 350" stroke-width="3"/>
 <path d="M0 520 Q300 310 650 520 T1200 420" stroke-width="1"/>
</g>
<g transform="translate(740 80) rotate(-7)" filter="url(#shadow)">
 <rect width="330" height="430" rx="32" fill="#10131c" stroke="#ef4444" stroke-width="6"/>
 <rect x="24" y="24" width="282" height="300" rx="20" fill="#070910" stroke="#303746" stroke-width="2"/>
 <text x="165" y="145" text-anchor="middle" fill="#ef4444" font-family="Arial Black,Arial" font-size="70">JACK</text>
 <text x="165" y="215" text-anchor="middle" fill="#fff" font-family="Arial Black,Arial" font-size="30">777</text>
 <text x="165" y="270" text-anchor="middle" fill="#d6dae4" font-family="Arial" font-size="18">FASTCASH ORIGINAL</text>
 <circle cx="165" cy="372" r="38" fill="#ef4444"/>
 <path d="M150 372h30M165 357v30" stroke="#0b0d13" stroke-width="6" stroke-linecap="round"/>
</g>
<text x="70" y="110" fill="#ef4444" font-family="Arial Black,Arial" font-size="24" letter-spacing="6">FASTCASH ORIGINAL</text>
<text x="70" y="205" fill="#fff" font-family="Arial Black,Arial" font-size="76">FRUIT JACK</text>
<text x="74" y="252" fill="#d0d5df" font-family="Arial" font-size="24" letter-spacing="3">MYSTERY • FREE SPINS</text>
<rect x="70" y="286" width="460" height="5" rx="3" fill="#ef4444"/>
<text x="70" y="335" fill="#8e94a5" font-family="Arial" font-size="17">LOS SANTOS • VIRTUAL TOKENS</text>
<g transform="translate(70 405)">
 <circle cx="36" cy="36" r="34" fill="#111522" stroke="#ef4444" stroke-width="3"/>
 <text x="36" y="49" text-anchor="middle" fill="#fff" font-family="Arial Black" font-size="28">7</text>
 <circle cx="125" cy="36" r="34" fill="#111522" stroke="#ef4444" stroke-width="3"/>
 <text x="125" y="48" text-anchor="middle" fill="#fff" font-family="Arial Black" font-size="25">★</text>
 <circle cx="214" cy="36" r="34" fill="#111522" stroke="#ef4444" stroke-width="3"/>
 <text x="214" y="49" text-anchor="middle" fill="#fff" font-family="Arial Black" font-size="26">♦</text>
</g>
</svg>